<mxfile host="Electron" modified="2023-05-27T21:56:16.554Z" agent="Mozilla/5.0 (X11; Linux x86_64) AppleWebKit/537.36 (KHTML, like Gecko) draw.io/21.2.8 Chrome/112.0.5615.165 Electron/24.2.0 Safari/537.36" etag="0dceZXU7Y6_gwUldDwqH" version="21.2.8" type="device">
  <diagram name="Page-1" id="rPyTbgEbK6NH7fgEcxm2">
    <mxGraphModel dx="1434" dy="839" grid="1" gridSize="10" guides="1" tooltips="1" connect="1" arrows="1" fold="1" page="1" pageScale="1" pageWidth="827" pageHeight="1169" math="0" shadow="0">
      <root>
        <mxCell id="0" />
        <mxCell id="1" parent="0" />
        <mxCell id="4mG5ghoS5k5o4R3h5Y_G-1" value="1" style="ellipse;whiteSpace=wrap;html=1;aspect=fixed;fillColor=#CCC;container=0;" parent="1" vertex="1">
          <mxGeometry x="40" y="56.216216216216225" width="61.315046389673256" height="61.315046389673256" as="geometry" />
        </mxCell>
        <mxCell id="4mG5ghoS5k5o4R3h5Y_G-2" value="2" style="ellipse;whiteSpace=wrap;html=1;aspect=fixed;fillColor=#fff;container=0;" parent="1" vertex="1">
          <mxGeometry x="151.55963302752292" y="56.216216216216225" width="61.315046389673256" height="61.315046389673256" as="geometry" />
        </mxCell>
        <mxCell id="4mG5ghoS5k5o4R3h5Y_G-4" value="T" style="edgeStyle=orthogonalEdgeStyle;rounded=0;orthogonalLoop=1;jettySize=auto;html=1;exitX=1;exitY=0.5;exitDx=0;exitDy=0;entryX=0;entryY=0.5;entryDx=0;entryDy=0;" parent="1" source="4mG5ghoS5k5o4R3h5Y_G-1" target="4mG5ghoS5k5o4R3h5Y_G-2" edge="1">
          <mxGeometry relative="1" as="geometry" />
        </mxCell>
        <mxCell id="4mG5ghoS5k5o4R3h5Y_G-3" value="24" style="ellipse;whiteSpace=wrap;html=1;aspect=fixed;fillColor=#fff;container=0;" parent="1" vertex="1">
          <mxGeometry x="730.2752293577981" y="56.216216216216225" width="61.315046389673256" height="61.315046389673256" as="geometry" />
        </mxCell>
        <mxCell id="4mG5ghoS5k5o4R3h5Y_G-5" style="edgeStyle=orthogonalEdgeStyle;rounded=0;orthogonalLoop=1;jettySize=auto;html=1;exitX=1;exitY=0.5;exitDx=0;exitDy=0;entryX=0;entryY=0.5;entryDx=0;entryDy=0;" parent="1" source="4mG5ghoS5k5o4R3h5Y_G-2" target="4mG5ghoS5k5o4R3h5Y_G-3" edge="1">
          <mxGeometry relative="1" as="geometry" />
        </mxCell>
        <mxCell id="4mG5ghoS5k5o4R3h5Y_G-11" value="3" style="ellipse;whiteSpace=wrap;html=1;aspect=fixed;fillColor=#CCC;container=0;" parent="1" vertex="1">
          <mxGeometry x="40" y="194.8648648648649" width="61.315046389673256" height="61.315046389673256" as="geometry" />
        </mxCell>
        <mxCell id="4mG5ghoS5k5o4R3h5Y_G-7" value="F" style="edgeStyle=orthogonalEdgeStyle;rounded=0;orthogonalLoop=1;jettySize=auto;html=1;exitX=0.5;exitY=1;exitDx=0;exitDy=0;entryX=0.5;entryY=0;entryDx=0;entryDy=0;" parent="1" source="4mG5ghoS5k5o4R3h5Y_G-1" target="4mG5ghoS5k5o4R3h5Y_G-11" edge="1">
          <mxGeometry relative="1" as="geometry">
            <mxPoint x="74.86238532110092" y="179.45945945945945" as="targetPoint" />
          </mxGeometry>
        </mxCell>
        <mxCell id="4mG5ghoS5k5o4R3h5Y_G-12" value="4" style="ellipse;whiteSpace=wrap;html=1;aspect=fixed;fillColor=#fff;container=0;" parent="1" vertex="1">
          <mxGeometry x="151.55963302752292" y="194.8648648648649" width="61.315046389673256" height="61.315046389673256" as="geometry" />
        </mxCell>
        <mxCell id="4mG5ghoS5k5o4R3h5Y_G-9" value="T" style="edgeStyle=orthogonalEdgeStyle;rounded=0;orthogonalLoop=1;jettySize=auto;html=1;exitX=1;exitY=0.5;exitDx=0;exitDy=0;entryX=0;entryY=0.5;entryDx=0;entryDy=0;" parent="1" source="4mG5ghoS5k5o4R3h5Y_G-11" target="4mG5ghoS5k5o4R3h5Y_G-12" edge="1">
          <mxGeometry relative="1" as="geometry" />
        </mxCell>
        <mxCell id="4mG5ghoS5k5o4R3h5Y_G-13" value="5" style="ellipse;whiteSpace=wrap;html=1;aspect=fixed;fillColor=#fff;container=0;" parent="1" vertex="1">
          <mxGeometry x="40" y="333.51351351351354" width="61.315046389673256" height="61.315046389673256" as="geometry" />
        </mxCell>
        <mxCell id="4mG5ghoS5k5o4R3h5Y_G-10" value="F" style="edgeStyle=orthogonalEdgeStyle;rounded=0;orthogonalLoop=1;jettySize=auto;html=1;exitX=0.5;exitY=1;exitDx=0;exitDy=0;entryX=0.5;entryY=0;entryDx=0;entryDy=0;" parent="1" source="4mG5ghoS5k5o4R3h5Y_G-11" target="4mG5ghoS5k5o4R3h5Y_G-13" edge="1">
          <mxGeometry relative="1" as="geometry" />
        </mxCell>
        <mxCell id="4mG5ghoS5k5o4R3h5Y_G-14" style="edgeStyle=orthogonalEdgeStyle;rounded=0;orthogonalLoop=1;jettySize=auto;html=1;entryX=1;entryY=0.5;entryDx=0;entryDy=0;" parent="1" source="4mG5ghoS5k5o4R3h5Y_G-12" target="4mG5ghoS5k5o4R3h5Y_G-13" edge="1">
          <mxGeometry relative="1" as="geometry">
            <Array as="points">
              <mxPoint x="186.42201834862385" y="372.02702702702703" />
            </Array>
          </mxGeometry>
        </mxCell>
        <mxCell id="4mG5ghoS5k5o4R3h5Y_G-15" value="6" style="ellipse;whiteSpace=wrap;html=1;aspect=fixed;fillColor=#CCC;container=0;" parent="1" vertex="1">
          <mxGeometry x="40" y="445.97297297297297" width="61.315046389673256" height="61.315046389673256" as="geometry" />
        </mxCell>
        <mxCell id="4mG5ghoS5k5o4R3h5Y_G-16" value="" style="edgeStyle=orthogonalEdgeStyle;rounded=0;orthogonalLoop=1;jettySize=auto;html=1;" parent="1" source="4mG5ghoS5k5o4R3h5Y_G-13" target="4mG5ghoS5k5o4R3h5Y_G-15" edge="1">
          <mxGeometry relative="1" as="geometry" />
        </mxCell>
        <mxCell id="4mG5ghoS5k5o4R3h5Y_G-17" value="14, 15, 16" style="ellipse;whiteSpace=wrap;html=1;aspect=fixed;fillColor=#fff;container=0;" parent="1" vertex="1">
          <mxGeometry x="40" y="580" width="61.315046389673256" height="61.315046389673256" as="geometry" />
        </mxCell>
        <mxCell id="4mG5ghoS5k5o4R3h5Y_G-18" value="F" style="edgeStyle=orthogonalEdgeStyle;rounded=0;orthogonalLoop=1;jettySize=auto;html=1;" parent="1" source="4mG5ghoS5k5o4R3h5Y_G-15" target="4mG5ghoS5k5o4R3h5Y_G-17" edge="1">
          <mxGeometry relative="1" as="geometry" />
        </mxCell>
        <mxCell id="4mG5ghoS5k5o4R3h5Y_G-19" value="7, 8.1" style="ellipse;whiteSpace=wrap;html=1;aspect=fixed;fillColor=#fff;container=0;" parent="1" vertex="1">
          <mxGeometry x="151.55963302752292" y="445.97297297297297" width="61.315046389673256" height="61.315046389673256" as="geometry" />
        </mxCell>
        <mxCell id="4mG5ghoS5k5o4R3h5Y_G-20" value="T" style="edgeStyle=orthogonalEdgeStyle;rounded=0;orthogonalLoop=1;jettySize=auto;html=1;" parent="1" source="4mG5ghoS5k5o4R3h5Y_G-15" target="4mG5ghoS5k5o4R3h5Y_G-19" edge="1">
          <mxGeometry relative="1" as="geometry" />
        </mxCell>
        <mxCell id="4mG5ghoS5k5o4R3h5Y_G-23" value="F" style="rounded=0;orthogonalLoop=1;jettySize=auto;html=1;entryX=1;entryY=0.5;entryDx=0;entryDy=0;exitX=0.5;exitY=1;exitDx=0;exitDy=0;edgeStyle=orthogonalEdgeStyle;" parent="1" source="4mG5ghoS5k5o4R3h5Y_G-21" target="4mG5ghoS5k5o4R3h5Y_G-17" edge="1">
          <mxGeometry relative="1" as="geometry">
            <mxPoint x="297.9816513761468" y="523" as="sourcePoint" />
            <mxPoint x="109.72477064220135" y="618.5135135135135" as="targetPoint" />
          </mxGeometry>
        </mxCell>
        <mxCell id="4mG5ghoS5k5o4R3h5Y_G-21" value="8.2" style="ellipse;whiteSpace=wrap;html=1;aspect=fixed;fillColor=#CCC;container=0;" parent="1" vertex="1">
          <mxGeometry x="263.11926605504584" y="445.97297297297297" width="61.315046389673256" height="61.315046389673256" as="geometry" />
        </mxCell>
        <mxCell id="4mG5ghoS5k5o4R3h5Y_G-22" value="" style="edgeStyle=orthogonalEdgeStyle;rounded=0;orthogonalLoop=1;jettySize=auto;html=1;" parent="1" source="4mG5ghoS5k5o4R3h5Y_G-19" target="4mG5ghoS5k5o4R3h5Y_G-21" edge="1">
          <mxGeometry relative="1" as="geometry" />
        </mxCell>
        <mxCell id="4mG5ghoS5k5o4R3h5Y_G-26" value="9" style="ellipse;whiteSpace=wrap;html=1;aspect=fixed;fillColor=#fff;container=0;" parent="1" vertex="1">
          <mxGeometry x="374.6788990825688" y="445.97297297297297" width="61.315046389673256" height="61.315046389673256" as="geometry" />
        </mxCell>
        <mxCell id="4mG5ghoS5k5o4R3h5Y_G-27" value="T" style="edgeStyle=orthogonalEdgeStyle;rounded=0;orthogonalLoop=1;jettySize=auto;html=1;" parent="1" source="4mG5ghoS5k5o4R3h5Y_G-21" target="4mG5ghoS5k5o4R3h5Y_G-26" edge="1">
          <mxGeometry relative="1" as="geometry" />
        </mxCell>
        <mxCell id="4mG5ghoS5k5o4R3h5Y_G-28" value="10" style="ellipse;whiteSpace=wrap;html=1;aspect=fixed;fillColor=#CCC;container=0;" parent="1" vertex="1">
          <mxGeometry x="486.23853211009174" y="445.97297297297297" width="61.315046389673256" height="61.315046389673256" as="geometry" />
        </mxCell>
        <mxCell id="4mG5ghoS5k5o4R3h5Y_G-29" value="" style="edgeStyle=orthogonalEdgeStyle;rounded=0;orthogonalLoop=1;jettySize=auto;html=1;" parent="1" source="4mG5ghoS5k5o4R3h5Y_G-26" target="4mG5ghoS5k5o4R3h5Y_G-28" edge="1">
          <mxGeometry relative="1" as="geometry" />
        </mxCell>
        <mxCell id="4mG5ghoS5k5o4R3h5Y_G-30" value="12" style="ellipse;whiteSpace=wrap;html=1;aspect=fixed;fillColor=#CCC;container=0;" parent="1" vertex="1">
          <mxGeometry x="611.743119266055" y="445.97297297297297" width="61.315046389673256" height="61.315046389673256" as="geometry" />
        </mxCell>
        <mxCell id="4mG5ghoS5k5o4R3h5Y_G-31" value="F" style="edgeStyle=orthogonalEdgeStyle;rounded=0;orthogonalLoop=1;jettySize=auto;html=1;" parent="1" source="4mG5ghoS5k5o4R3h5Y_G-28" target="4mG5ghoS5k5o4R3h5Y_G-30" edge="1">
          <mxGeometry relative="1" as="geometry" />
        </mxCell>
        <mxCell id="4mG5ghoS5k5o4R3h5Y_G-32" value="13" style="ellipse;whiteSpace=wrap;html=1;aspect=fixed;fillColor=#fff;container=0;" parent="1" vertex="1">
          <mxGeometry x="611.743119266055" y="580" width="61.315046389673256" height="61.315046389673256" as="geometry" />
        </mxCell>
        <mxCell id="4mG5ghoS5k5o4R3h5Y_G-36" value="T" style="edgeStyle=orthogonalEdgeStyle;rounded=0;orthogonalLoop=1;jettySize=auto;html=1;" parent="1" source="4mG5ghoS5k5o4R3h5Y_G-30" target="4mG5ghoS5k5o4R3h5Y_G-32" edge="1">
          <mxGeometry relative="1" as="geometry" />
        </mxCell>
        <mxCell id="4mG5ghoS5k5o4R3h5Y_G-35" style="rounded=0;orthogonalLoop=1;jettySize=auto;html=1;exitX=1;exitY=0;exitDx=0;exitDy=0;entryX=0;entryY=1;entryDx=0;entryDy=0;" parent="1" source="4mG5ghoS5k5o4R3h5Y_G-33" target="4mG5ghoS5k5o4R3h5Y_G-30" edge="1">
          <mxGeometry relative="1" as="geometry" />
        </mxCell>
        <mxCell id="4mG5ghoS5k5o4R3h5Y_G-33" value="11" style="ellipse;whiteSpace=wrap;html=1;aspect=fixed;fillColor=#fff;container=0;" parent="1" vertex="1">
          <mxGeometry x="486.23853211009174" y="580" width="61.315046389673256" height="61.315046389673256" as="geometry" />
        </mxCell>
        <mxCell id="4mG5ghoS5k5o4R3h5Y_G-34" value="T" style="edgeStyle=orthogonalEdgeStyle;rounded=0;orthogonalLoop=1;jettySize=auto;html=1;" parent="1" source="4mG5ghoS5k5o4R3h5Y_G-28" target="4mG5ghoS5k5o4R3h5Y_G-33" edge="1">
          <mxGeometry relative="1" as="geometry" />
        </mxCell>
        <mxCell id="4mG5ghoS5k5o4R3h5Y_G-41" style="edgeStyle=orthogonalEdgeStyle;rounded=0;orthogonalLoop=1;jettySize=auto;html=1;exitX=0.5;exitY=0;exitDx=0;exitDy=0;entryX=0.5;entryY=0;entryDx=0;entryDy=0;" parent="1" source="4mG5ghoS5k5o4R3h5Y_G-37" target="4mG5ghoS5k5o4R3h5Y_G-21" edge="1">
          <mxGeometry relative="1" as="geometry">
            <Array as="points">
              <mxPoint x="765.137614678899" y="395.13513513513516" />
              <mxPoint x="297.9816513761468" y="395.13513513513516" />
            </Array>
          </mxGeometry>
        </mxCell>
        <mxCell id="4mG5ghoS5k5o4R3h5Y_G-37" value="8.3" style="ellipse;whiteSpace=wrap;html=1;aspect=fixed;fillColor=#fff;container=0;" parent="1" vertex="1">
          <mxGeometry x="730.2752293577981" y="445.97297297297297" width="61.315046389673256" height="61.315046389673256" as="geometry" />
        </mxCell>
        <mxCell id="4mG5ghoS5k5o4R3h5Y_G-40" value="F" style="edgeStyle=orthogonalEdgeStyle;rounded=0;orthogonalLoop=1;jettySize=auto;html=1;" parent="1" source="4mG5ghoS5k5o4R3h5Y_G-30" target="4mG5ghoS5k5o4R3h5Y_G-37" edge="1">
          <mxGeometry relative="1" as="geometry" />
        </mxCell>
        <mxCell id="4mG5ghoS5k5o4R3h5Y_G-39" style="rounded=0;orthogonalLoop=1;jettySize=auto;html=1;exitX=1;exitY=0;exitDx=0;exitDy=0;entryX=0;entryY=1;entryDx=0;entryDy=0;" parent="1" source="4mG5ghoS5k5o4R3h5Y_G-32" target="4mG5ghoS5k5o4R3h5Y_G-37" edge="1">
          <mxGeometry relative="1" as="geometry">
            <mxPoint x="717.7247706422019" y="627.7567567567568" as="sourcePoint" />
            <mxPoint x="793.0275229357798" y="549.1891891891892" as="targetPoint" />
          </mxGeometry>
        </mxCell>
        <mxCell id="4mG5ghoS5k5o4R3h5Y_G-45" value="17" style="ellipse;whiteSpace=wrap;html=1;aspect=fixed;fillColor=#CCC;container=0;" parent="1" vertex="1">
          <mxGeometry x="40" y="703.2432432432433" width="61.315046389673256" height="61.315046389673256" as="geometry" />
        </mxCell>
        <mxCell id="4mG5ghoS5k5o4R3h5Y_G-46" value="" style="edgeStyle=orthogonalEdgeStyle;rounded=0;orthogonalLoop=1;jettySize=auto;html=1;" parent="1" source="4mG5ghoS5k5o4R3h5Y_G-17" target="4mG5ghoS5k5o4R3h5Y_G-45" edge="1">
          <mxGeometry relative="1" as="geometry" />
        </mxCell>
        <mxCell id="4mG5ghoS5k5o4R3h5Y_G-51" style="edgeStyle=orthogonalEdgeStyle;rounded=0;orthogonalLoop=1;jettySize=auto;html=1;exitX=1;exitY=0.5;exitDx=0;exitDy=0;entryX=1;entryY=0.5;entryDx=0;entryDy=0;" parent="1" source="4mG5ghoS5k5o4R3h5Y_G-49" target="4mG5ghoS5k5o4R3h5Y_G-3" edge="1">
          <mxGeometry relative="1" as="geometry" />
        </mxCell>
        <mxCell id="4mG5ghoS5k5o4R3h5Y_G-49" value="18" style="ellipse;whiteSpace=wrap;html=1;aspect=fixed;fillColor=#fff;container=0;" parent="1" vertex="1">
          <mxGeometry x="193.394495412844" y="703.2432432432433" width="61.315046389673256" height="61.315046389673256" as="geometry" />
        </mxCell>
        <mxCell id="4mG5ghoS5k5o4R3h5Y_G-50" value="T" style="edgeStyle=orthogonalEdgeStyle;rounded=0;orthogonalLoop=1;jettySize=auto;html=1;" parent="1" source="4mG5ghoS5k5o4R3h5Y_G-45" target="4mG5ghoS5k5o4R3h5Y_G-49" edge="1">
          <mxGeometry relative="1" as="geometry" />
        </mxCell>
        <mxCell id="4mG5ghoS5k5o4R3h5Y_G-52" value="19" style="ellipse;whiteSpace=wrap;html=1;aspect=fixed;fillColor=#CCC;container=0;" parent="1" vertex="1">
          <mxGeometry x="40" y="826.4864864864866" width="61.315046389673256" height="61.315046389673256" as="geometry" />
        </mxCell>
        <mxCell id="4mG5ghoS5k5o4R3h5Y_G-53" value="F" style="edgeStyle=orthogonalEdgeStyle;rounded=0;orthogonalLoop=1;jettySize=auto;html=1;" parent="1" source="4mG5ghoS5k5o4R3h5Y_G-45" target="4mG5ghoS5k5o4R3h5Y_G-52" edge="1">
          <mxGeometry relative="1" as="geometry" />
        </mxCell>
        <mxCell id="4mG5ghoS5k5o4R3h5Y_G-54" value="F" style="edgeStyle=orthogonalEdgeStyle;rounded=0;orthogonalLoop=1;jettySize=auto;html=1;exitX=1;exitY=0.5;exitDx=0;exitDy=0;" parent="1" source="4mG5ghoS5k5o4R3h5Y_G-52" target="4mG5ghoS5k5o4R3h5Y_G-55" edge="1">
          <mxGeometry relative="1" as="geometry">
            <mxPoint x="123.6697247706422" y="865" as="sourcePoint" />
          </mxGeometry>
        </mxCell>
        <mxCell id="4mG5ghoS5k5o4R3h5Y_G-55" value="23" style="ellipse;whiteSpace=wrap;html=1;aspect=fixed;fillColor=#fff;container=0;" parent="1" vertex="1">
          <mxGeometry x="193.394495412844" y="826.4864864864866" width="61.315046389673256" height="61.315046389673256" as="geometry" />
        </mxCell>
        <mxCell id="4mG5ghoS5k5o4R3h5Y_G-56" style="edgeStyle=orthogonalEdgeStyle;rounded=0;orthogonalLoop=1;jettySize=auto;html=1;exitX=1;exitY=0.5;exitDx=0;exitDy=0;entryX=1;entryY=0.5;entryDx=0;entryDy=0;" parent="1" source="4mG5ghoS5k5o4R3h5Y_G-55" target="4mG5ghoS5k5o4R3h5Y_G-3" edge="1">
          <mxGeometry relative="1" as="geometry">
            <mxPoint x="277.0642201834862" y="757.1621621621623" as="sourcePoint" />
            <mxPoint x="1057.9816513761466" y="110.13513513513514" as="targetPoint" />
          </mxGeometry>
        </mxCell>
        <mxCell id="4mG5ghoS5k5o4R3h5Y_G-57" value="20.1" style="ellipse;whiteSpace=wrap;html=1;aspect=fixed;fillColor=#fff;container=0;" parent="1" vertex="1">
          <mxGeometry x="40" y="949.7297297297298" width="61.315046389673256" height="61.315046389673256" as="geometry" />
        </mxCell>
        <mxCell id="4mG5ghoS5k5o4R3h5Y_G-58" value="T" style="edgeStyle=orthogonalEdgeStyle;rounded=0;orthogonalLoop=1;jettySize=auto;html=1;" parent="1" source="4mG5ghoS5k5o4R3h5Y_G-52" target="4mG5ghoS5k5o4R3h5Y_G-57" edge="1">
          <mxGeometry relative="1" as="geometry" />
        </mxCell>
        <mxCell id="4mG5ghoS5k5o4R3h5Y_G-65" value="F" style="edgeStyle=orthogonalEdgeStyle;rounded=0;orthogonalLoop=1;jettySize=auto;html=1;fontFamily=Helvetica;fontSize=12;fontColor=default;" parent="1" source="4mG5ghoS5k5o4R3h5Y_G-61" target="4mG5ghoS5k5o4R3h5Y_G-55" edge="1">
          <mxGeometry relative="1" as="geometry" />
        </mxCell>
        <mxCell id="4mG5ghoS5k5o4R3h5Y_G-61" value="20.2" style="ellipse;whiteSpace=wrap;html=1;aspect=fixed;fillColor=#CCC;container=0;" parent="1" vertex="1">
          <mxGeometry x="193.394495412844" y="949.7297297297298" width="61.315046389673256" height="61.315046389673256" as="geometry" />
        </mxCell>
        <mxCell id="4mG5ghoS5k5o4R3h5Y_G-62" value="" style="edgeStyle=orthogonalEdgeStyle;rounded=0;orthogonalLoop=1;jettySize=auto;html=1;fontFamily=Helvetica;fontSize=12;fontColor=default;" parent="1" source="4mG5ghoS5k5o4R3h5Y_G-57" target="4mG5ghoS5k5o4R3h5Y_G-61" edge="1">
          <mxGeometry relative="1" as="geometry" />
        </mxCell>
        <mxCell id="4mG5ghoS5k5o4R3h5Y_G-66" value="21" style="ellipse;whiteSpace=wrap;html=1;aspect=fixed;fillColor=#CCC;container=0;" parent="1" vertex="1">
          <mxGeometry x="318.89908256880733" y="949.7297297297298" width="61.315046389673256" height="61.315046389673256" as="geometry" />
        </mxCell>
        <mxCell id="4mG5ghoS5k5o4R3h5Y_G-67" value="T" style="edgeStyle=orthogonalEdgeStyle;rounded=0;orthogonalLoop=1;jettySize=auto;html=1;fontFamily=Helvetica;fontSize=12;fontColor=default;" parent="1" source="4mG5ghoS5k5o4R3h5Y_G-61" target="4mG5ghoS5k5o4R3h5Y_G-66" edge="1">
          <mxGeometry relative="1" as="geometry" />
        </mxCell>
        <mxCell id="4mG5ghoS5k5o4R3h5Y_G-69" value="" style="edgeStyle=orthogonalEdgeStyle;rounded=0;orthogonalLoop=1;jettySize=auto;html=1;fontFamily=Helvetica;fontSize=12;fontColor=default;" parent="1" source="4mG5ghoS5k5o4R3h5Y_G-68" target="4mG5ghoS5k5o4R3h5Y_G-61" edge="1">
          <mxGeometry relative="1" as="geometry" />
        </mxCell>
        <mxCell id="4mG5ghoS5k5o4R3h5Y_G-68" value="20.3" style="ellipse;whiteSpace=wrap;html=1;aspect=fixed;fillColor=#fff;container=0;" parent="1" vertex="1">
          <mxGeometry x="193.394495412844" y="1072.972972972973" width="61.315046389673256" height="61.315046389673256" as="geometry" />
        </mxCell>
        <mxCell id="4mG5ghoS5k5o4R3h5Y_G-70" value="F" style="edgeStyle=orthogonalEdgeStyle;rounded=0;orthogonalLoop=1;jettySize=auto;html=1;exitX=0.5;exitY=1;exitDx=0;exitDy=0;entryX=1;entryY=0.5;entryDx=0;entryDy=0;fontFamily=Helvetica;fontSize=12;fontColor=default;" parent="1" source="4mG5ghoS5k5o4R3h5Y_G-66" target="4mG5ghoS5k5o4R3h5Y_G-68" edge="1">
          <mxGeometry x="0.3333" relative="1" as="geometry">
            <mxPoint as="offset" />
          </mxGeometry>
        </mxCell>
        <mxCell id="4mG5ghoS5k5o4R3h5Y_G-73" style="edgeStyle=orthogonalEdgeStyle;rounded=0;orthogonalLoop=1;jettySize=auto;html=1;exitX=1;exitY=0.5;exitDx=0;exitDy=0;entryX=1;entryY=0.5;entryDx=0;entryDy=0;fontFamily=Helvetica;fontSize=12;fontColor=default;" parent="1" source="4mG5ghoS5k5o4R3h5Y_G-71" target="4mG5ghoS5k5o4R3h5Y_G-3" edge="1">
          <mxGeometry relative="1" as="geometry" />
        </mxCell>
        <mxCell id="4mG5ghoS5k5o4R3h5Y_G-71" value="22" style="ellipse;whiteSpace=wrap;html=1;aspect=fixed;fillColor=#fff;container=0;" parent="1" vertex="1">
          <mxGeometry x="444.40366972477057" y="949.7297297297298" width="61.315046389673256" height="61.315046389673256" as="geometry" />
        </mxCell>
        <mxCell id="4mG5ghoS5k5o4R3h5Y_G-74" value="R1" style="text;html=1;strokeColor=none;fillColor=none;align=center;verticalAlign=middle;whiteSpace=wrap;rounded=0;fontSize=12;fontFamily=Helvetica;fontColor=default;container=0;" parent="1" vertex="1">
          <mxGeometry x="256.1467889908257" y="10" width="83.6697247706422" height="46.216216216216225" as="geometry" />
        </mxCell>
        <mxCell id="4mG5ghoS5k5o4R3h5Y_G-75" value="R2" style="text;html=1;strokeColor=none;fillColor=none;align=center;verticalAlign=middle;whiteSpace=wrap;rounded=0;fontSize=12;fontFamily=Helvetica;fontColor=default;container=0;" parent="1" vertex="1">
          <mxGeometry x="95.77981651376146" y="287.29729729729735" width="83.6697247706422" height="46.216216216216225" as="geometry" />
        </mxCell>
        <mxCell id="4mG5ghoS5k5o4R3h5Y_G-76" value="R3" style="text;html=1;strokeColor=none;fillColor=none;align=center;verticalAlign=middle;whiteSpace=wrap;rounded=0;fontSize=12;fontFamily=Helvetica;fontColor=default;container=0;" parent="1" vertex="1">
          <mxGeometry x="402.5688073394495" y="194.8648648648649" width="83.6697247706422" height="46.216216216216225" as="geometry" />
        </mxCell>
        <mxCell id="4mG5ghoS5k5o4R3h5Y_G-77" value="R4" style="text;html=1;strokeColor=none;fillColor=none;align=center;verticalAlign=middle;whiteSpace=wrap;rounded=0;fontSize=12;fontFamily=Helvetica;fontColor=default;container=0;" parent="1" vertex="1">
          <mxGeometry x="430.45871559633025" y="399.75675675675683" width="83.6697247706422" height="46.216216216216225" as="geometry" />
        </mxCell>
        <mxCell id="4mG5ghoS5k5o4R3h5Y_G-78" value="R5" style="text;html=1;strokeColor=none;fillColor=none;align=center;verticalAlign=middle;whiteSpace=wrap;rounded=0;fontSize=12;fontFamily=Helvetica;fontColor=default;container=0;" parent="1" vertex="1">
          <mxGeometry x="165.5045871559633" y="533.7837837837839" width="83.6697247706422" height="46.216216216216225" as="geometry" />
        </mxCell>
        <mxCell id="4mG5ghoS5k5o4R3h5Y_G-79" value="R6" style="text;html=1;strokeColor=none;fillColor=none;align=center;verticalAlign=middle;whiteSpace=wrap;rounded=0;fontSize=12;fontFamily=Helvetica;fontColor=default;container=0;" parent="1" vertex="1">
          <mxGeometry x="514.1284403669724" y="518.3783783783784" width="83.6697247706422" height="46.216216216216225" as="geometry" />
        </mxCell>
        <mxCell id="4mG5ghoS5k5o4R3h5Y_G-80" value="R7" style="text;html=1;strokeColor=none;fillColor=none;align=center;verticalAlign=middle;whiteSpace=wrap;rounded=0;fontSize=12;fontFamily=Helvetica;fontColor=default;container=0;" parent="1" vertex="1">
          <mxGeometry x="646.6055045871559" y="502.97297297297297" width="83.6697247706422" height="46.216216216216225" as="geometry" />
        </mxCell>
        <mxCell id="4mG5ghoS5k5o4R3h5Y_G-81" value="R11" style="text;html=1;strokeColor=none;fillColor=none;align=center;verticalAlign=middle;whiteSpace=wrap;rounded=0;fontSize=12;fontFamily=Helvetica;fontColor=default;container=0;" parent="1" vertex="1">
          <mxGeometry x="249.17431192660547" y="1042.1621621621623" width="83.6697247706422" height="46.216216216216225" as="geometry" />
        </mxCell>
        <mxCell id="4mG5ghoS5k5o4R3h5Y_G-82" value="R10" style="text;html=1;strokeColor=none;fillColor=none;align=center;verticalAlign=middle;whiteSpace=wrap;rounded=0;fontSize=12;fontFamily=Helvetica;fontColor=default;container=0;" parent="1" vertex="1">
          <mxGeometry x="528.0733944954128" y="903.5135135135137" width="83.6697247706422" height="46.216216216216225" as="geometry" />
        </mxCell>
        <mxCell id="4mG5ghoS5k5o4R3h5Y_G-83" value="R9" style="text;html=1;strokeColor=none;fillColor=none;align=center;verticalAlign=middle;whiteSpace=wrap;rounded=0;fontSize=12;fontFamily=Helvetica;fontColor=default;container=0;" parent="1" vertex="1">
          <mxGeometry x="109.72477064220183" y="903.5135135135137" width="83.6697247706422" height="46.216216216216225" as="geometry" />
        </mxCell>
        <mxCell id="4mG5ghoS5k5o4R3h5Y_G-84" value="R8" style="text;html=1;strokeColor=none;fillColor=none;align=center;verticalAlign=middle;whiteSpace=wrap;rounded=0;fontSize=12;fontFamily=Helvetica;fontColor=default;container=0;" parent="1" vertex="1">
          <mxGeometry x="416.5137614678899" y="780.2702702702703" width="83.6697247706422" height="46.216216216216225" as="geometry" />
        </mxCell>
        <mxCell id="4mG5ghoS5k5o4R3h5Y_G-72" value="T" style="edgeStyle=orthogonalEdgeStyle;rounded=0;orthogonalLoop=1;jettySize=auto;html=1;fontFamily=Helvetica;fontSize=12;fontColor=default;" parent="1" source="4mG5ghoS5k5o4R3h5Y_G-66" target="4mG5ghoS5k5o4R3h5Y_G-71" edge="1">
          <mxGeometry relative="1" as="geometry" />
        </mxCell>
      </root>
    </mxGraphModel>
  </diagram>
</mxfile>
